<?xml version="1.0" standalone="no"?>
<!DOCTYPE svg PUBLIC "-//W3C//DTD SVG 20010904//EN"
 "http://www.w3.org/TR/2001/REC-SVG-20010904/DTD/svg10.dtd">
<svg version="1.0" xmlns="http://www.w3.org/2000/svg"
 width="2000.000000pt" height="6375.000000pt" viewBox="0 0 2000.000000 6375.000000"
 preserveAspectRatio="xMidYMid meet">
<metadata>
Created by potrace 1.15, written by Peter Selinger 2001-2017
</metadata>
<g transform="translate(0.000000,6375.000000) scale(0.100000,-0.100000)"
fill="#000000" stroke="none">
<path d="M8009 63720 c-948 -198 -1828 -656 -2614 -1361 -431 -387 -842 -867
-1160 -1354 -563 -863 -916 -1780 -1061 -2757 -24 -161 -25 -189 -20 -403 51
-1879 239 -3605 681 -6255 94 -562 145 -857 399 -2300 328 -1867 452 -2620
595 -3625 221 -1553 347 -2904 381 -4090 12 -435 26 -780 41 -1030 13 -213 6
-999 -10 -1220 -127 -1699 -575 -3315 -1599 -5765 -77 -184 -325 -767 -552
-1295 -757 -1765 -995 -2359 -1320 -3295 -43 -124 -120 -337 -170 -475 -718
-1960 -1226 -4155 -1455 -6290 -9 -82 -18 -151 -20 -153 -1 -2 -6 15 -10 38
-9 55 -48 100 -86 100 l-29 0 0 -220 c0 -213 1 -220 21 -231 12 -6 35 -9 51
-7 28 5 29 4 24 -31 -17 -106 -67 -864 -86 -1281 -13 -289 -13 -2057 0 -2345
32 -717 90 -1432 170 -2106 431 -3609 1561 -7051 3312 -10089 190 -331 434
-808 766 -1501 588 -1225 867 -1746 1225 -2284 770 -1157 1620 -1801 2652
-2010 397 -80 516 -84 2297 -85 1551 0 1393 -6 1853 74 243 43 316 58 465 97
676 175 1264 511 1783 1019 481 469 874 1035 1271 1829 253 505 438 941 896
2111 365 932 555 1380 744 1757 153 306 424 928 646 1483 1003 2509 1643 5146
1890 7790 19 208 20 291 20 2406 l0 2192 -25 253 c-104 1042 -246 1938 -461
2914 -41 187 -100 453 -130 590 -335 1514 -875 3115 -1714 5075 -309 722 -547
1254 -1100 2455 -714 1552 -982 2141 -1237 2729 -460 1057 -820 1962 -931
2336 -707 2380 -875 4930 -547 8290 102 1046 194 1775 495 3935 209 1495 288
2097 375 2835 210 1798 298 3332 264 4605 -8 281 -13 578 -12 660 11 987 10
1015 -43 1379 -195 1325 -886 2571 -1936 3494 -804 705 -1739 1160 -2789 1356
-74 14 -199 39 -279 55 l-145 30 -820 0 -820 0 -136 -29z m1287 -50 c244 -19
389 -40 659 -95 94 -19 261 -53 373 -75 1300 -259 2518 -1031 3365 -2132 806
-1049 1227 -2348 1156 -3573 -17 -300 -17 -347 0 -850 15 -436 11 -1250 -9
-1710 -57 -1351 -189 -2700 -455 -4660 -31 -225 -60 -446 -66 -490 -15 -118
-15 -118 -100 -138 -138 -32 -435 -66 -719 -82 -58 -3 -126 -8 -151 -11 l-46
-5 -6 -312 c-14 -690 -78 -1521 -193 -2520 -20 -175 -34 -321 -30 -324 4 -4
99 -10 212 -14 297 -11 455 -33 535 -74 22 -12 28 -21 24 -38 -6 -29 -78 -678
-110 -992 -77 -782 -129 -1506 -160 -2246 l-7 -156 -146 -7 c-205 -9 -799 -57
-888 -71 -29 -5 -32 -9 -38 -53 -13 -98 -149 -809 -212 -1107 -167 -795 -288
-1142 -462 -1320 -61 -62 -126 -99 -247 -138 -139 -46 -204 -58 -252 -46 -152
39 -253 299 -292 754 -35 405 -38 1037 -8 1610 l12 220 -1025 -1 c-624 0
-1117 -5 -1260 -12 -129 -6 -299 -14 -378 -18 l-143 -6 6 -77 c35 -454 32
-1253 -6 -1701 -45 -537 -170 -795 -372 -767 -59 8 -232 63 -293 92 -214 104
-356 402 -508 1065 -56 245 -151 713 -216 1068 -27 151 -52 278 -55 283 -4 5
-84 9 -179 9 -145 0 -260 10 -711 60 -296 33 -559 60 -585 60 l-47 0 -12 143
c-73 857 -205 1949 -361 2977 -22 146 -40 268 -40 271 0 3 98 9 218 13 222 7
607 29 812 46 63 5 167 10 231 10 l115 0 -18 143 c-122 954 -213 2028 -234
2775 l-7 232 -221 0 c-122 0 -356 -5 -521 -10 -683 -22 -910 -29 -913 -26 -7
8 -275 1551 -386 2226 -392 2387 -576 4076 -628 5768 -13 428 -10 480 38 761
231 1351 936 2679 1945 3666 988 966 2152 1519 3389 1608 109 8 509 6 626 -3z
m4314 -23879 l95 -6 47 -325 c124 -868 284 -1599 530 -2425 96 -323 419 -1139
826 -2085 285 -663 527 -1199 1281 -2837 618 -1345 871 -1909 1178 -2628 805
-1889 1335 -3451 1662 -4905 116 -517 223 -1011 270 -1250 404 -2065 540
-4192 405 -6375 -174 -2829 -828 -5727 -1909 -8455 -207 -523 -496 -1193 -628
-1455 -219 -438 -420 -910 -783 -1839 -450 -1151 -626 -1569 -874 -2071 -140
-283 -234 -456 -378 -695 -713 -1187 -1568 -1878 -2664 -2150 -167 -41 -569
-114 -828 -149 -486 -67 -1094 -92 -1690 -72 -315 11 -449 18 -1000 56 -124 8
-319 19 -435 25 -1362 66 -2411 812 -3353 2385 -272 455 -521 937 -994 1925
-338 705 -570 1159 -766 1500 -412 714 -822 1519 -1164 2285 -717 1605 -1280
3313 -1667 5055 -761 3422 -854 7031 -271 10475 234 1383 544 2637 981 3962
80 241 167 490 351 998 30 83 90 251 133 375 255 739 551 1472 1251 3103 667
1553 896 2114 1162 2837 624 1701 948 3141 1010 4492 5 98 11 179 13 181 2 2
249 0 549 -4 3039 -41 4198 -37 5705 16 231 9 553 22 715 31 606 31 1025 40
1240 25z"/>
<path d="M11490 49799 c-569 -13 -1889 -39 -2770 -54 -1062 -18 -1370 -26
-1370 -35 0 -4 72 -443 160 -976 158 -961 264 -1628 316 -1984 14 -102 32
-191 39 -199 20 -21 421 -16 1165 13 349 14 912 35 1250 46 702 23 1143 39
1146 43 1 1 18 112 39 247 76 510 166 1067 410 2558 30 184 55 338 55 343 0 5
-28 8 -62 7 -35 -1 -205 -5 -378 -9z"/>
</g>
</svg>
