<?xml version="1.0" encoding="utf-8"?>
<!-- Generator: Adobe Illustrator 21.0.2, SVG Export Plug-In . SVG Version: 6.00 Build 0)  -->
<svg version="1.1" xmlns="http://www.w3.org/2000/svg" xmlns:xlink="http://www.w3.org/1999/xlink" x="0px" y="0px"
	 viewBox="0 0 2000 6375" style="enable-background:new 0 0 2000 6375;" xml:space="preserve">
<style type="text/css">
	.st0{fill:#FF0000;}
	.st1{opacity:0.37;}
	.st2{fill:url(#SVGID_1_);}
	.st3{fill:url(#SVGID_2_);}
	.st4{fill:url(#SVGID_3_);}
	.st5{opacity:0.37;fill:#FFFFFF;}
	.st6{fill:#FFFFFF;}
</style>
<g id="Pin">
	<g transform="translate(0.000000,6375.000000) scale(0.100000,-0.100000)">
		<path d="M8009,63720c-948-198-1828-656-2614-1361c-431-387-842-867-1160-1354c-563-863-916-1780-1061-2757c-24-161-25-189-20-403
			c51-1879,239-3605,681-6255c94-562,145-857,399-2300c328-1867,452-2620,595-3625c221-1553,347-2904,381-4090
			c12-435,26-780,41-1030c13-213,6-999-10-1220c-127-1699-575-3315-1599-5765c-77-184-325-767-552-1295
			c-757-1765-995-2359-1320-3295c-43-124-120-337-170-475c-718-1960-1226-4155-1455-6290c-9-82-18-151-20-153c-1-2-6,15-10,38
			c-9,55-48,100-86,100H0v-220c0-213,1-220,21-231c12-6,35-9,51-7c28,5,29,4,24-31c-17-106-67-864-86-1281c-13-289-13-2057,0-2345
			c32-717,90-1432,170-2106c431-3609,1561-7051,3312-10089c190-331,434-808,766-1501c588-1225,867-1746,1225-2284
			C6253,938,7103,294,8135,85c397-80,516-84,2297-85c1551,0,1393-6,1853,74c243,43,316,58,465,97c676,175,1264,511,1783,1019
			c481,469,874,1035,1271,1829c253,505,438,941,896,2111c365,932,555,1380,744,1757c153,306,424,928,646,1483
			c1003,2509,1643,5146,1890,7790c19,208,20,291,20,2406v2192l-25,253c-104,1042-246,1938-461,2914c-41,187-100,453-130,590
			c-335,1514-875,3115-1714,5075c-309,722-547,1254-1100,2455c-714,1552-982,2141-1237,2729c-460,1057-820,1962-931,2336
			c-707,2380-875,4930-547,8290c102,1046,194,1775,495,3935c209,1495,288,2097,375,2835c210,1798,298,3332,264,4605
			c-8,281-13,578-12,660c11,987,10,1015-43,1379c-195,1325-886,2571-1936,3494c-804,705-1739,1160-2789,1356c-74,14-199,39-279,55
			l-145,30h-820h-820L8009,63720z M9296,63670c244-19,389-40,659-95c94-19,261-53,373-75c1300-259,2518-1031,3365-2132
			c806-1049,1227-2348,1156-3573c-17-300-17-347,0-850c15-436,11-1250-9-1710c-57-1351-189-2700-455-4660c-31-225-60-446-66-490
			c-15-118-15-118-100-138c-138-32-435-66-719-82c-58-3-126-8-151-11l-46-5l-6-312c-14-690-78-1521-193-2520c-20-175-34-321-30-324
			c4-4,99-10,212-14c297-11,455-33,535-74c22-12,28-21,24-38c-6-29-78-678-110-992c-77-782-129-1506-160-2246l-7-156l-146-7
			c-205-9-799-57-888-71c-29-5-32-9-38-53c-13-98-149-809-212-1107c-167-795-288-1142-462-1320c-61-62-126-99-247-138
			c-139-46-204-58-252-46c-152,39-253,299-292,754c-35,405-38,1037-8,1610l12,220l-1025-1c-624,0-1117-5-1260-12
			c-129-6-299-14-378-18l-143-6l6-77c35-454,32-1253-6-1701c-45-537-170-795-372-767c-59,8-232,63-293,92c-214,104-356,402-508,1065
			c-56,245-151,713-216,1068c-27,151-52,278-55,283c-4,5-84,9-179,9c-145,0-260,10-711,60c-296,33-559,60-585,60h-47l-12,143
			c-73,857-205,1949-361,2977c-22,146-40,268-40,271s98,9,218,13c222,7,607,29,812,46c63,5,167,10,231,10h115l-18,143
			c-122,954-213,2028-234,2775l-7,232h-221c-122,0-356-5-521-10c-683-22-910-29-913-26c-7,8-275,1551-386,2226
			c-392,2387-576,4076-628,5768c-13,428-10,480,38,761c231,1351,936,2679,1945,3666c988,966,2152,1519,3389,1608
			C8779,63681,9179,63679,9296,63670z M13610,39791l95-6l47-325c124-868,284-1599,530-2425c96-323,419-1139,826-2085
			c285-663,527-1199,1281-2837c618-1345,871-1909,1178-2628c805-1889,1335-3451,1662-4905c116-517,223-1011,270-1250
			c404-2065,540-4192,405-6375c-174-2829-828-5727-1909-8455c-207-523-496-1193-628-1455c-219-438-420-910-783-1839
			c-450-1151-626-1569-874-2071c-140-283-234-456-378-695c-713-1187-1568-1878-2664-2150c-167-41-569-114-828-149
			c-486-67-1094-92-1690-72c-315,11-449,18-1000,56c-124,8-319,19-435,25c-1362,66-2411,812-3353,2385c-272,455-521,937-994,1925
			c-338,705-570,1159-766,1500c-412,714-822,1519-1164,2285c-717,1605-1280,3313-1667,5055C10,16722-83,20331,500,23775
			c234,1383,544,2637,981,3962c80,241,167,490,351,998c30,83,90,251,133,375c255,739,551,1472,1251,3103
			c667,1553,896,2114,1162,2837c624,1701,948,3141,1010,4492c5,98,11,179,13,181s249,0,549-4c3039-41,4198-37,5705,16
			c231,9,553,22,715,31C12976,39797,13395,39806,13610,39791z"/>
		<path d="M11490,49799c-569-13-1889-39-2770-54c-1062-18-1370-26-1370-35c0-4,72-443,160-976c158-961,264-1628,316-1984
			c14-102,32-191,39-199c20-21,421-16,1165,13c349,14,912,35,1250,46c702,23,1143,39,1146,43c1,1,18,112,39,247
			c76,510,166,1067,410,2558c30,184,55,338,55,343s-28,8-62,7C11833,49807,11663,49803,11490,49799z"/>
	</g>
</g>
<g id="Layer_3">
	<path class="st0" d="M417.4,1411.7c131.1-3.2,238.2-6,313.3-8.1c140.7-3.8,156.2-4.6,223.5-5.9c157.5-3.1,236.2-4.7,246-4.5
		c0,0,89.8,1.4,148.5-4.5c39-3.9,58.5-5.9,61.6-6.6c7.9-1.9,33.6-3.9,33.6-3.9c0,0-4.3,36-6.8,55.6c-2.2,17.8-4,30.2-13.9,98.7
		c-9.6,66.2-8.9,60.4-10.6,72.4c-3.6,25.6-8.6,63.1-14,109.4c-120.5,3.1-189,4.1-230,4.5c-15.2,0.1-37.8,0.3-69.8,1.1
		c-48.7,1.3-77.3,3.2-161.3,4.8c0,0-66.5,1.3-370.4-0.1c-20.4-0.1-54,2.1-96,4.9"/>
</g>
<g id="Layer_4">
	<path class="st0" d="M512.4,2066.3c95.1,4.5,173.5,6,229.6,6.5c97.1,0.9,87.2,0.5,170.5-0.1c119.5-0.9,164.5,2.7,221.2,0.4
		c16.1-0.7,32.6-2.8,79.5-6.4c73.3-5.7,110-8.5,117.6-7.6c3.2,0.4,15.7,2,31.2-1.3c2.8-0.6,5-1.2,6.4-1.6c0.4,10.3,1,26,1.2,45
		c0.2,17.2,0,29.1-0.1,46.5c-0.3,37.7-0.5,56.5-0.4,68c0.4,28.1,2.5,50.6,6.4,95.5c2.1,24.3,5,53.4,9.1,86.4
		c-134.9,4.9-269.9,9.7-404.8,14.6l-293.2-6c-53.7-2.2-107.4-4.4-161.2-6.6c-0.6-59-1.2-118-1.9-177"/>
</g>
<g id="Layer_5">
</g>
<g id="Layer_6" class="st1">
	<linearGradient id="SVGID_1_" gradientUnits="userSpaceOnUse" x1="931.926" y1="1551.6616" x2="931.926" y2="12.4979">
		<stop  offset="1.430983e-02" style="stop-color:#FFFFFF;stop-opacity:0.1"/>
		<stop  offset="0.1676" style="stop-color:#F6F6F6;stop-opacity:0.4388"/>
		<stop  offset="0.4185" style="stop-color:#DDDDDD;stop-opacity:0.9933"/>
		<stop  offset="0.4215" style="stop-color:#DDDDDD"/>
	</linearGradient>
	<path class="st2" d="M1317.1,181.5c-1.3-1.3-2.6-2.6-3.9-4c-15.4-15.5-38.1-38.4-67.2-59.6c-22.4-16.4-39.6-25-73.8-42.4
		c-31.8-16.1-55-27.9-84.1-37.9c-28.9-9.9-72.4-21.1-128.9-22.1c-17.8-1.4-43.7-3-75-3c-53,0-82,0-120,9
		c-9.9,2.3-53,13.1-102.7,42.2c-19.4,11.4-31.9,20.9-51.2,35.7C589.9,115,542.2,153.1,490,212c-26.9,30.4-44.1,54.1-47.9,59.3
		c-18.6,25.7-32.9,49.2-43.6,68.2c55.3,31.6,98.5,63.3,129.6,88.5c27.9,22.6,57.4,43.5,87.1,80.9c52,65.5,73.1,102,81.3,117.4
		c15.3,28.6,25.8,55.5,46.7,109.4c16.7,43.1,25.1,64.7,33,93c10,36.1,7.8,41.6,21,132c11.5,78.6,26.1,163,12,201
		c-1.3,3.6,17.8,173.4,15,165c25.8,95.8,33,114,33,114c33.8,93.4,60.3,111.4,78,111c49-1,70.9-140.2,198.6-516.1
		c4.9-14.5,34.4-100.8,81.3-210.9c63.3-148.8,96.9-197.2,115.5-221.6c44.1-58,113.4-120.5,122.7-159.3c0.1-0.4,0.2-0.8,0.2-1
		c3.3-4.4,7.6-11.1,10.3-19.9c2.9-9.6,8-34.4-59.5-133.5C1404.4,289.4,1362.7,228.2,1317.1,181.5z"/>
</g>
<g id="Layer_7">
</g>
<g id="Layer_9">
	<linearGradient id="SVGID_2_" gradientUnits="userSpaceOnUse" x1="1007.4728" y1="3641.656" x2="1007.4728" y2="6381.0103">
		<stop  offset="1.430983e-02" style="stop-color:#FFFFFF;stop-opacity:0.1"/>
		<stop  offset="0.2264" style="stop-color:#F6F6F6;stop-opacity:0.3454"/>
		<stop  offset="0.5528" style="stop-color:#DFDFDF;stop-opacity:0.7231"/>
		<stop  offset="0.792" style="stop-color:#DDDDDD"/>
	</linearGradient>
	<path class="st3" d="M2000.8,4409.9c-2.7-108.6-9.5-102.3-10.8-179.9c-0.2-9.2-0.4-30.5-6-58c-3.6-17.9-9-43.4-25.1-72.1
		c-16-28.6-34.5-46.6-49.3-59.9c-15.9-14.3-33.6-28.7-52.7-39.4c-3.4-6.2-7.5-12-12.4-17.4c-8.2-12.7-19.2-22.8-32.8-30.1
		c-9.3-3.9-18.6-7.9-27.9-11.8c-15.6-4.9-31.1-5.6-46.7-2.1c-10.6,0-20.4,2.7-29.5,8c-14.5,4.7-27.1,12.8-37.7,24.2
		c-1.5,1.6-2.9,3.2-4.3,4.9c-49,14.6-92.6,44.8-127.8,81.4c-26.8,28-49.7,59.5-73.1,90.5c-20.4,25.4-42.5,48.9-67.5,69.8
		c-3,2.1-5.9,4.2-8.9,6.2c-24.2,3.5-47.4,14-65,31.1c-39.9,4.7-79.8,9.5-119.7,14.2c-24.7,2.9-49.4,5.9-74.1,8.8
		c0.9-24.4,1.8-48.9,2.6-73.3c0.6-16.1-2.8-31.1-10.1-45.1c-4.7-14.5-12.8-27.1-24.2-37.7c-10.6-11.4-23.1-19.5-37.7-24.2
		c-9.7-5.1-19.9-8.3-30.6-9.5c-12.4-5.5-25.5-7.9-39.5-7.4c-23.9,1.1-48.6,7.5-68.3,21.5c-11.9-14.7-23.9-26.2-42.3-37.5
		c-24.4-15-48.7-19.9-76.7-22.2c-31.7-2.5-68.3,8.8-95.2,25.1c-17.8,10.8-32.9,23.6-46.3,38.2c-4.1-0.6-8.2-1-12.2-1.6
		c-9-1.2-18.2-2.9-27.3-2.9c-14,0.1-28.2,2.7-41.9,5c-4.3,0.7-8.5,1.6-12.6,3c-13,4.3-25.9,9.9-38.1,16c-3.6,1.8-7,3.8-10.3,6.2
		c-13.8,9.8-28.5,20-39.4,33.2c-10.7,13-22.5,26.7-29.7,42.2c-0.5,1-0.9,2-1.4,3c-35.5,4.3-71,8.6-106.4,12.9
		c-10.7-0.4-21,1-30.7,4.1c-2.2-114,1.8-228.1,12.1-341.7c3.9-42.5,8.6-84.8,14.2-127.1c0.6-16.1-2.8-31.1-10.1-45.1
		c-4.7-14.5-12.8-27.1-24.2-37.7c-7.9-6.1-15.8-12.2-23.7-18.3c-13.4-8.6-27.9-13.2-43.5-13.9c-10.4-2.8-20.7-2.8-31.1,0
		c-15.6,0.7-30.1,5.3-43.5,13.9c-25.7,16.6-45.4,39.9-53.8,69.9C83.3,3815,68.4,3905,60.2,3995.2c-3.9,43-5.8,86.1-5.7,129.2
		c-13.2,39.3-22.7,79.8-28.6,120.8c-8.3,57.5-13.5,114.5-10.5,172.7c1.8,33.8,6.2,67.4,11.2,100.8c1.7,11.7,3.7,23.3,6,34.8
		c-11.3,1.2-17.8,3-18.3,5.3c-4.5,19.7,8.8,88.2,7,97.7c7.5,85.9,19.4,183.2,38.5,289.5c12.3,68.5,27.2,150.1,57,255
		c32.2,113.3,65.2,195.2,98.6,277.4c51.4,126.7,98.4,221.2,132.5,289.7c0,0,116.8,235,136.1,276.8c0.5,1,1.9,4.2,4.1,8.6
		c5.1,10.3,14.4,27.8,28.1,47.2c1.6,2.3,3.3,4.6,5,7c2,4.3,5,10.5,8.8,17.8c7.2,13.8,28.5,52.9,67.6,97.3
		c21.8,24.8,50.1,56.8,97.2,86.4c39.9,25.1,74.6,36.6,96.5,43.7c47.5,15.4,84.6,19.4,123.1,23.3c96.6,9.8,171.7,2.3,192.5,0
		c73.1-8,135.7-24.1,185.5-40.9c19.2-4.5,47.3-12.9,78-30c38.3-21.2,62.3-45.6,83.3-67.3c7.4-7.6,30.4-31.9,60.7-76.7
		c14.3-21,43.1-65.8,81.7-152.1c25.6-57.2,23.6-61.3,53.1-132.8c31.2-75.3,34.9-74.1,74.9-165.2c17.3-39.5,39-93.8,82.3-202.3
		c81.4-204.2,43.3-119.3,43.3-119.3c0,0,0.2-0.4,0.2-0.4c0.9-2,14.9-48.7,48.2-161.9c15.7-54.7,30.7-113.4,44-176
		c11.4-53.6,20.6-105,27.9-154c7.1-47.1,11.4-86.8,14.1-116c1.1-12.3,2-23.8,2.9-35c4.3-39.5,8.7-88.2,11.6-144.1
		C2000.3,4566.9,2003,4497.7,2000.8,4409.9z"/>
	<linearGradient id="SVGID_3_" gradientUnits="userSpaceOnUse" x1="-761.2861" y1="4816.0361" x2="-761.2861" y2="4816.0361">
		<stop  offset="1.430983e-02" style="stop-color:#FFFFFF;stop-opacity:0.1"/>
		<stop  offset="0.2264" style="stop-color:#F6F6F6;stop-opacity:0.3454"/>
		<stop  offset="0.5528" style="stop-color:#DFDFDF;stop-opacity:0.7231"/>
		<stop  offset="0.792" style="stop-color:#DDDDDD"/>
	</linearGradient>
	<path class="st4" d="M-761.3,4816"/>
</g>
<g id="Layer_2">
	<path class="st5" d="M739.5,1625.8c-3.2-28.2-5.2-56.5-6.4-84.9c-18.5-157-41.6-269.2-65.4-267.8c-78.3,4.5-7.1,1230.5,71.1,1225.9
		c47.1-2.7,40.1-446.6,10.1-799.4C745.1,1675,742.2,1650.3,739.5,1625.8z"/>
	<path class="st5" d="M1163.5,2499.9c-78.4-1.5-54.5-1229.3,23.9-1227.8S1241.9,2501.4,1163.5,2499.9z"/>
</g>
<g id="Layer_8">
	
		<ellipse transform="matrix(0.1737 -0.9848 0.9848 0.1737 -3530.3079 3892.1682)" class="st6" cx="554.3" cy="4049.9" rx="1126.8" ry="512"/>
	
		<ellipse transform="matrix(0.9734 -0.2293 0.2293 0.9734 -891.7986 433.9489)" class="st6" cx="1421.6" cy="4054.9" rx="512" ry="1126.8"/>
</g>
</svg>
