<?xml version="1.0" encoding="utf-8"?>
<!-- Generator: Adobe Illustrator 21.0.2, SVG Export Plug-In . SVG Version: 6.00 Build 0)  -->
<svg version="1.1" id="Pin" xmlns="http://www.w3.org/2000/svg" xmlns:xlink="http://www.w3.org/1999/xlink" x="0px" y="0px"
	 viewBox="0 0 2000 6375" style="enable-background:new 0 0 2000 6375;" xml:space="preserve">
<style type="text/css">
	.st0{fill:#FFFFFF;}
	.st1{fill:#FF0000;}
	.st2{fill:url(#SVGID_1_);}
	.st3{fill:url(#SVGID_2_);}
	.st4{fill:url(#SVGID_3_);}
	.st5{opacity:0.37;fill:#FFFFFF;enable-background:new    ;}
</style>
<g transform="translate(0.000000,6375.000000) scale(0.100000,-0.100000)">
	<path d="M8009,63720c-948-198-1828-656-2614-1361c-431-387-842-867-1160-1354c-563-863-916-1780-1061-2757c-24-161-25-189-20-403
		c51-1879,239-3605,681-6255c94-562,145-857,399-2300c328-1867,452-2620,595-3625c221-1553,347-2904,381-4090c12-435,26-780,41-1030
		c13-213,6-999-10-1220c-127-1699-575-3315-1599-5765c-77-184-325-767-552-1295c-757-1765-995-2359-1320-3295
		c-43-124-120-337-170-475c-718-1960-1226-4155-1455-6290c-9-82-18-151-20-153c-1-2-6,15-10,38c-9,55-48,100-86,100H0v-220
		c0-213,1-220,21-231c12-6,35-9,51-7c28,5,29,4,24-31c-17-106-67-864-86-1281c-13-289-13-2057,0-2345c32-717,90-1432,170-2106
		c431-3609,1561-7051,3312-10089c190-331,434-808,766-1501c588-1225,867-1746,1225-2284C6253,938,7103,294,8135,85
		c397-80,516-84,2297-85c1551,0,1393-6,1853,74c243,43,316,58,465,97c676,175,1264,511,1783,1019c481,469,874,1035,1271,1829
		c253,505,438,941,896,2111c365,932,555,1380,744,1757c153,306,424,928,646,1483c1003,2509,1643,5146,1890,7790
		c19,208,20,291,20,2406v2192l-25,253c-104,1042-246,1938-461,2914c-41,187-100,453-130,590c-335,1514-875,3115-1714,5075
		c-309,722-547,1254-1100,2455c-714,1552-982,2141-1237,2729c-460,1057-820,1962-931,2336c-707,2380-875,4930-547,8290
		c102,1046,194,1775,495,3935c209,1495,288,2097,375,2835c210,1798,298,3332,264,4605c-8,281-13,578-12,660c11,987,10,1015-43,1379
		c-195,1325-886,2571-1936,3494c-804,705-1739,1160-2789,1356c-74,14-199,39-279,55l-145,30h-820h-820L8009,63720z M9296,63670
		c244-19,389-40,659-95c94-19,261-53,373-75c1300-259,2518-1031,3365-2132c806-1049,1227-2348,1156-3573c-17-300-17-347,0-850
		c15-436,11-1250-9-1710c-57-1351-189-2700-455-4660c-31-225-60-446-66-490c-15-118-15-118-100-138c-138-32-435-66-719-82
		c-58-3-126-8-151-11l-46-5l-6-312c-14-690-78-1521-193-2520c-20-175-34-321-30-324c4-4,99-10,212-14c297-11,455-33,535-74
		c22-12,28-21,24-38c-6-29-78-678-110-992c-77-782-129-1506-160-2246l-7-156l-146-7c-205-9-799-57-888-71c-29-5-32-9-38-53
		c-13-98-149-809-212-1107c-167-795-288-1142-462-1320c-61-62-126-99-247-138c-139-46-204-58-252-46c-152,39-253,299-292,754
		c-35,405-38,1037-8,1610l12,220l-1025-1c-624,0-1117-5-1260-12c-129-6-299-14-378-18l-143-6l6-77c35-454,32-1253-6-1701
		c-45-537-170-795-372-767c-59,8-232,63-293,92c-214,104-356,402-508,1065c-56,245-151,713-216,1068c-27,151-52,278-55,283
		c-4,5-84,9-179,9c-145,0-260,10-711,60c-296,33-559,60-585,60h-47l-12,143c-73,857-205,1949-361,2977c-22,146-40,268-40,271
		s98,9,218,13c222,7,607,29,812,46c63,5,167,10,231,10h115l-18,143c-122,954-213,2028-234,2775l-7,232h-221c-122,0-356-5-521-10
		c-683-22-910-29-913-26c-7,8-275,1551-386,2226c-392,2387-576,4076-628,5768c-13,428-10,480,38,761c231,1351,936,2679,1945,3666
		c988,966,2152,1519,3389,1608C8779,63681,9179,63679,9296,63670z M13610,39791l95-6l47-325c124-868,284-1599,530-2425
		c96-323,419-1139,826-2085c285-663,527-1199,1281-2837c618-1345,871-1909,1178-2628c805-1889,1335-3451,1662-4905
		c116-517,223-1011,270-1250c404-2065,540-4192,405-6375c-174-2829-828-5727-1909-8455c-207-523-496-1193-628-1455
		c-219-438-420-910-783-1839c-450-1151-626-1569-874-2071c-140-283-234-456-378-695c-713-1187-1568-1878-2664-2150
		c-167-41-569-114-828-149c-486-67-1094-92-1690-72c-315,11-449,18-1000,56c-124,8-319,19-435,25c-1362,66-2411,812-3353,2385
		c-272,455-521,937-994,1925c-338,705-570,1159-766,1500c-412,714-822,1519-1164,2285c-717,1605-1280,3313-1667,5055
		C10,16722-83,20331,500,23775c234,1383,544,2637,981,3962c80,241,167,490,351,998c30,83,90,251,133,375c255,739,551,1472,1251,3103
		c667,1553,896,2114,1162,2837c624,1701,948,3141,1010,4492c5,98,11,179,13,181s249,0,549-4c3039-41,4198-37,5705,16
		c231,9,553,22,715,31C12976,39797,13395,39806,13610,39791z"/>
	<path d="M11490,49799c-569-13-1889-39-2770-54c-1062-18-1370-26-1370-35c0-4,72-443,160-976c158-961,264-1628,316-1984
		c14-102,32-191,39-199c20-21,421-16,1165,13c349,14,912,35,1250,46c702,23,1143,39,1146,43c1,1,18,112,39,247
		c76,510,166,1067,410,2558c30,184,55,338,55,343s-28,8-62,7C11833,49807,11663,49803,11490,49799z"/>
</g>
<g id="Layer_2">
	<path class="st0" d="M1995.3,4492.3c1.3-71.8,0.4-132.1-9.4-204.3c-4.9-36.3-5.9-30-14.3-87.1c-16.5-111.5-12-130.1-27.7-197.9
		c-11.1-47.8-16.6-71.8-21-85.9c-6.3-20.2-13.1-37.9-15-61.1c-0.3-3.7-0.8-11.1-3-21c-3.6-16.2-9.2-27.1-12-33
		c-5.2-11-9.7-29.2-18.8-65.7c-8-32.2-7.7-37-14.2-54.3c-2.8-7.4-3.5-8.4-15-33c-14.6-31.4-21.9-47.1-27-60
		c-5.2-13.2-12.1-32.4-18-57c-33.9-80-60.3-144.9-78-189c-27.8-69.3-37.9-96.8-60-144c-34.5-73.6-39.9-70.8-74.2-140.9
		c-39.2-80-42.5-104.6-96.8-231.2c-21.2-49.4-39.4-89.1-51-114c-39.8-89.1-55.9-165.2-63-219c-2.8-21.4-1.1-16.1-8.3-113.7
		c-10.9-149.4-14.6-158.8-15.8-216.3c-1.1-51.4,1.1-88.2,5.3-161.9c2.2-38,5.4-83.9,16.6-197.5c7.9-80.1,14.8-150,24-226.1
		c12.2-101.2,32.8-249.3,68.1-437.7c6.9-90,13.8-180,20.6-269.9c0.6-22.2,0.8-45.2,0.4-69.1c-0.4-26-1.5-51-3-75
		c-0.4-66-1.7-120.8-3-162c-0.3-9.6-1.4-43.2-6-87c-6-57.9-12-75.9-15-84c-5.6-15.4-8.2-17.1-39-69c-41.2-69.4-39.2-70.9-52.6-86.3
		c-20-23.2-24.9-20.3-60.2-57.5c-25-26.3-23.8-29-40.8-45.1c-28.4-27-55.3-42-72.8-51.5c-28.4-15.5-51.5-23.2-97.7-38.5
		c-25.9-8.6-58.3-19.2-102.3-28c-36.4-7.2-59.8-9.1-65.9-9.5c-14.5-1-36.5-1.9-62.6-0.3c-45.3,2.8-78.7,11.8-108.2,19.8
		c-39.1,10.7-68.8,18.8-105,39c-25.5,14.3-42.9,28.2-60,42c-30,24.1-49.2,44.5-75,72c-43.3,46.3-69.4,81.1-82.2,98.9
		c-19.2,26.8-31.2,46.6-40.8,72.1c-6.4,17-10,31.7-12,42c-0.6,9.4-2.5,22.8-9,37.5c-3.9,8.8-6.3,8.7-12.3,21.1
		c-10.5,21.5-19.2,44-28.2,66.2c-1.7,4.2-3.3,8.4-4.7,12.8c-2.6,8.1-4.6,16.4-6.1,24.7c-4.4,25.3-7.5,51-10.4,76.6
		c-0.6,5.5-1,11.1-1.3,16.6c-1.8,42.2,6.4,85.5,12.3,126.9c3.1,22,7.5,43.7,11.9,65.4l27.3,135l2,10c-0.5,6-0.9,11.9-1.2,17.9
		c-1.4,28.9-0.3,57.9,1.6,86.7c3.1,48.4,7.5,96.9,16.2,144.6c5.5,30.1,19.6,59.3,32.1,86.6c4.5,52,10.3,104,17.1,155.8
		c11.6,89,24.3,177.8,39.6,266.2c11.9,68.5,24.9,136.8,38.6,204.9c9.1,45.5,18.5,91,28.1,136.4c9.9,93.1,14,206.9,1.4,335.4
		c-8.7,89.1-23.9,168.9-41,238c-11.9,59.8-28.3,125.4-51,195c-33.3,102.3-72.6,190.6-111,264c-26,58-52,116-78,174
		c-13,36-26,72-39,108c-8.7,36.1-17.6,64.8-24,84c-12,36.3-15.9,41.3-30,84c-14.8,44.9-22.2,67.3-24,78c-2.8,16.9-5.2,40.4-21,66
		c-3.6,5.8-7,10.4-9.4,13.3c-1.9,3.5-4,8.1-5.6,13.7c-1.9,6.7-2.6,12.6-2.7,17.1c-4.8,21-9.9,42.3-15.3,63.9
		c-5.6,22.7-11.4,45.1-17.2,67c-5.3,19.7-12.4,48.2-19,83c-6.3,33.7-9.4,58.8-11.8,78c-20.9,169.7-20.4,164.7-21,171
		c-4.2,47.5-9.2,105.1-8.6,180c0.3,33.2,1.4,42.5,5.6,138c2.6,58.4,4.4,106.2,5.6,137.9c0.8,31.5,3.2,77.4,10.8,132.3
		c7.8,56.7,17.5,97.2,28,141.9c49.3,208.7,38.7,175.2,54.6,235.9c36.9,140.3,57.3,217.9,102,318c23.4,52.5,49.6,101,102,198
		c59.6,110.3,61,104.2,91.1,166.3c29.8,61.6,58.7,130,91.9,190.7c12.3,22.6,17.7,30.3,35.4,63.4c11.7,21.9,16.6,32.2,27.6,47.6
		c11.7,16.5,22.3,27.7,33,39c18.1,19,25.2,23.6,48,45c34,31.9,31.3,34.1,48,48c30,25,59.9,35.7,78,42c35.9,12.5,65.1,14.4,120,18
		c32.9,2.1,33.8,0.4,66,3c49.4,4.1,53.6,8.8,86.4,10.9c31,2,56.9-1.3,108.6-7.9c17.5-2.2,49.6-6.7,90-15c48.8-10.1,73.9-15.4,105-30
		c30.9-14.5,49.4-29.3,54-33c10.2-8.3,15.3-13.9,39-39c49-51.9,46.4-48.4,51-54c17.2-21,27.3-40,47.6-78.1
		c19-35.7,17.2-37.5,48.4-98.9c8-15.7,12.8-24.9,21-42c7.7-16.1,16.6-35.5,27-60c14.3-33.9,19.9-50.1,33-84
		c31.6-81.6,59-141.4,68.8-162.6c9.9-21.4,18.5-38.8,24.2-50.4c5.9-12,14.4-29.6,24-51c51-113.8,76.1-207,93-273
		c50.9-199.3,77.6-298.7,96-441C1991,4722.5,1992.8,4628.1,1995.3,4492.3z"/>
</g>
<path class="st1" d="M417.4,1411.7c131.1-3.2,238.2-6,313.3-8.1c140.7-3.8,156.2-4.6,223.5-5.9c157.5-3.1,236.2-4.7,246-4.5
	c0,0,89.8,1.4,148.5-4.5c39-3.9,58.5-5.9,61.6-6.6c7.9-1.9,33.6-3.9,33.6-3.9s-4.3,36-6.8,55.6c-2.2,17.8-4,30.2-13.9,98.7
	c-9.6,66.2-8.9,60.4-10.6,72.4c-3.6,25.6-8.6,63.1-14,109.4c-120.5,3.1-189,4.1-230,4.5c-15.2,0.1-37.8,0.3-69.8,1.1
	c-48.7,1.3-77.3,3.2-161.3,4.8c0,0-66.5,1.3-370.4-0.1c-20.4-0.1-54,2.1-96,4.9"/>
<path class="st1" d="M512.4,2066.3c95.1,4.5,173.5,6,229.6,6.5c97.1,0.9,87.2,0.5,170.5-0.1c119.5-0.9,164.5,2.7,221.2,0.4
	c16.1-0.7,32.6-2.8,79.5-6.4c73.3-5.7,110-8.5,117.6-7.6c3.2,0.4,15.7,2,31.2-1.3c2.8-0.6,5-1.2,6.4-1.6c0.4,10.3,1,26,1.2,45
	c0.2,17.2,0,29.1-0.1,46.5c-0.3,37.7-0.5,56.5-0.4,68c0.4,28.1,2.5,50.6,6.4,95.5c2.1,24.3,5,53.4,9.1,86.4
	c-134.9,4.9-269.9,9.7-404.8,14.6l-293.2-6c-53.7-2.2-107.4-4.4-161.2-6.6c-0.6-59-1.2-118-1.9-177"/>
<linearGradient id="SVGID_1_" gradientUnits="userSpaceOnUse" x1="931.8701" y1="4824.2935" x2="931.8701" y2="6363.5" gradientTransform="matrix(1 0 0 -1 0 6376)">
	<stop  offset="1.430983e-02" style="stop-color:#FFFFFF;stop-opacity:0.1"/>
	<stop  offset="0.1676" style="stop-color:#F6F6F6;stop-opacity:0.4388"/>
	<stop  offset="0.4185" style="stop-color:#DDDDDD;stop-opacity:0.9933"/>
	<stop  offset="0.4215" style="stop-color:#DDDDDD"/>
</linearGradient>
<path class="st2" d="M1317.1,181.5c-1.3-1.3-2.6-2.6-3.9-4c-15.4-15.5-38.1-38.4-67.2-59.6c-22.4-16.4-39.6-25-73.8-42.4
	c-31.8-16.1-55-27.9-84.1-37.9c-28.9-9.9-72.4-21.1-128.9-22.1c-17.8-1.4-43.7-3-75-3c-53,0-82,0-120,9c-9.9,2.3-53,13.1-102.7,42.2
	c-19.4,11.4-31.9,20.9-51.2,35.7C589.9,115,542.2,153.1,490,212c-26.9,30.4-44.1,54.1-47.9,59.3c-18.6,25.7-32.9,49.2-43.6,68.2
	c55.3,31.6,98.5,63.3,129.6,88.5c27.9,22.6,57.4,43.5,87.1,80.9c52,65.5,73.1,102,81.3,117.4c15.3,28.6,25.8,55.5,46.7,109.4
	c16.7,43.1,25.1,64.7,33,93c10,36.1,7.8,41.6,21,132c11.5,78.6,26.1,163,12,201c-1.3,3.6,17.8,173.4,15,165c25.8,95.8,33,114,33,114
	c33.8,93.4,60.3,111.4,78,111c49-1,70.9-140.2,198.6-516.1c4.9-14.5,34.4-100.8,81.3-210.9c63.3-148.8,96.9-197.2,115.5-221.6
	c44.1-58,113.4-120.5,122.7-159.3c0.1-0.4,0.2-0.8,0.2-1c3.3-4.4,7.6-11.1,10.3-19.9c2.9-9.6,8-34.4-59.5-133.5
	C1404.4,289.4,1362.7,228.2,1317.1,181.5z"/>
<linearGradient id="SVGID_2_" gradientUnits="userSpaceOnUse" x1="1007.4957" y1="2734.5999" x2="1007.4957" y2="-5.1122" gradientTransform="matrix(1 0 0 -1 0 6376)">
	<stop  offset="1.430983e-02" style="stop-color:#FFFFFF;stop-opacity:0.1"/>
	<stop  offset="0.2264" style="stop-color:#F6F6F6;stop-opacity:0.3454"/>
	<stop  offset="0.5528" style="stop-color:#DFDFDF;stop-opacity:0.7231"/>
	<stop  offset="0.792" style="stop-color:#DDDDDD"/>
</linearGradient>
<path class="st3" d="M2000.8,4409.9c-2.7-108.6-9.5-102.3-10.8-179.9c-0.2-9.2-0.4-30.5-6-58c-3.6-17.9-9-43.4-25.1-72.1
	c-16-28.6-34.5-46.6-49.3-59.9c-15.9-14.3-33.6-28.7-52.7-39.4c-3.4-6.2-7.5-12-12.4-17.4c-8.2-12.7-19.2-22.8-32.8-30.1
	c-9.3-3.9-18.6-7.9-27.9-11.8c-15.6-4.9-31.1-5.6-46.7-2.1c-10.6,0-20.4,2.7-29.5,8c-14.5,4.7-27.1,12.8-37.7,24.2
	c-1.5,1.6-2.9,3.2-4.3,4.9c-49,14.6-92.6,44.8-127.8,81.4c-26.8,28-49.7,59.5-73.1,90.5c-20.4,25.4-42.5,48.9-67.5,69.8
	c-3,2.1-5.9,4.2-8.9,6.2c-24.2,3.5-47.4,14-65,31.1c-39.9,4.7-79.8,9.5-119.7,14.2c-24.7,2.9-49.4,5.9-74.1,8.8
	c0.9-24.4,1.8-48.9,2.6-73.3c0.6-16.1-2.8-31.1-10.1-45.1c-4.7-14.5-12.8-27.1-24.2-37.7c-10.6-11.4-23.1-19.5-37.7-24.2
	c-9.7-5.1-19.9-8.3-30.6-9.5c-12.4-5.5-25.5-7.9-39.5-7.4c-23.9,1.1-48.6,7.5-68.3,21.5c-11.9-14.7-23.9-26.2-42.3-37.5
	c-24.4-15-48.7-19.9-76.7-22.2c-31.7-2.5-68.3,8.8-95.2,25.1c-17.8,10.8-32.9,23.6-46.3,38.2c-4.1-0.6-8.2-1-12.2-1.6
	c-9-1.2-18.2-2.9-27.3-2.9c-14,0.1-28.2,2.7-41.9,5c-4.3,0.7-8.5,1.6-12.6,3c-13,4.3-25.9,9.9-38.1,16c-3.6,1.8-7,3.8-10.3,6.2
	c-13.8,9.8-28.5,20-39.4,33.2c-10.7,13-22.5,26.7-29.7,42.2c-0.5,1-0.9,2-1.4,3c-35.5,4.3-71,8.6-106.4,12.9
	c-10.7-0.4-21,1-30.7,4.1c-2.2-114,1.8-228.1,12.1-341.7c3.9-42.5,8.6-84.8,14.2-127.1c0.6-16.1-2.8-31.1-10.1-45.1
	c-4.7-14.5-12.8-27.1-24.2-37.7c-7.9-6.1-15.8-12.2-23.7-18.3c-13.4-8.6-27.9-13.2-43.5-13.9c-10.4-2.8-20.7-2.8-31.1,0
	c-15.6,0.7-30.1,5.3-43.5,13.9c-25.7,16.6-45.4,39.9-53.8,69.9C83.3,3815,68.4,3905,60.2,3995.2c-3.9,43-5.8,86.1-5.7,129.2
	c-13.2,39.3-22.7,79.8-28.6,120.8c-8.3,57.5-13.5,114.5-10.5,172.7c1.8,33.8,6.2,67.4,11.2,100.8c1.7,11.7,3.7,23.3,6,34.8
	c-11.3,1.2-17.8,3-18.3,5.3c-4.5,19.7,8.8,88.2,7,97.7c7.5,85.9,19.4,183.2,38.5,289.5c12.3,68.5,27.2,150.1,57,255
	c32.2,113.3,65.2,195.2,98.6,277.4c51.4,126.7,98.4,221.2,132.5,289.7c0,0,116.8,235,136.1,276.8c0.5,1,1.9,4.2,4.1,8.6
	c5.1,10.3,14.4,27.8,28.1,47.2c1.6,2.3,3.3,4.6,5,7c2,4.3,5,10.5,8.8,17.8c7.2,13.8,28.5,52.9,67.6,97.3
	c21.8,24.8,50.1,56.8,97.2,86.4c39.9,25.1,74.6,36.6,96.5,43.7c47.5,15.4,84.6,19.4,123.1,23.3c96.6,9.8,171.7,2.3,192.5,0
	c73.1-8,135.7-24.1,185.5-40.9c19.2-4.5,47.3-12.9,78-30c38.3-21.2,62.3-45.6,83.3-67.3c7.4-7.6,30.4-31.9,60.7-76.7
	c14.3-21,43.1-65.8,81.7-152.1c25.6-57.2,23.6-61.3,53.1-132.8c31.2-75.3,34.9-74.1,74.9-165.2c17.3-39.5,39-93.8,82.3-202.3
	c81.4-204.2,43.3-119.3,43.3-119.3l0.2-0.4c0.9-2,14.9-48.7,48.2-161.9c15.7-54.7,30.7-113.4,44-176c11.4-53.6,20.6-105,27.9-154
	c7.1-47.1,11.4-86.8,14.1-116c1.1-12.3,2-23.8,2.9-35c4.3-39.5,8.7-88.2,11.6-144.1C2000.3,4566.9,2003,4497.7,2000.8,4409.9z"/>
<linearGradient id="SVGID_3_" gradientUnits="userSpaceOnUse" x1="-761.3" y1="1560" x2="-761.3" y2="1560" gradientTransform="matrix(1 0 0 -1 0 6376)">
	<stop  offset="1.430983e-02" style="stop-color:#FFFFFF;stop-opacity:0.1"/>
	<stop  offset="0.2264" style="stop-color:#F6F6F6;stop-opacity:0.3454"/>
	<stop  offset="0.5528" style="stop-color:#DFDFDF;stop-opacity:0.7231"/>
	<stop  offset="0.792" style="stop-color:#DDDDDD"/>
</linearGradient>
<path class="st4" d="M-761.3,4816"/>
<path class="st5" d="M739.5,1625.8c-3.2-28.2-5.2-56.5-6.4-84.9c-18.5-157-41.6-269.2-65.4-267.8c-78.3,4.5-7.1,1230.5,71.1,1225.9
	c47.1-2.7,40.1-446.6,10.1-799.4C745.1,1675,742.2,1650.3,739.5,1625.8z"/>
<path class="st5" d="M1163.5,2499.9c-78.4-1.5-54.5-1229.3,23.9-1227.8S1241.9,2501.4,1163.5,2499.9z"/>
<ellipse transform="matrix(0.1737 -0.9848 0.9848 0.1737 -3530.1685 3892.2078)" class="st0" cx="554.3" cy="4049.8" rx="1126.8" ry="512"/>
<ellipse transform="matrix(0.9734 -0.2293 0.2293 0.9734 -891.8964 434.0323)" class="st0" cx="1421.8" cy="4055" rx="512" ry="1126.8"/>
</svg>
